<?xml version="1.0" encoding="utf-8"?>
<!-- Generator: Adobe Illustrator 23.0.1, SVG Export Plug-In . SVG Version: 6.00 Build 0)  -->
<svg version="1.1" id="Слой_1" xmlns="http://www.w3.org/2000/svg" xmlns:xlink="http://www.w3.org/1999/xlink" x="0px" y="0px"
	 viewBox="0 0 332 512" style="enable-background:new 0 0 332 512;" xml:space="preserve">
<path d="M166.2,430.1l-89.8-94.9l29.1-27.5l60.6,64.1l60.3-64.1l29.1,27.4L166.2,430.1z M332,392V120C332,53.8,278.2,0,212,0h-92
	C53.8,0,0,53.8,0,120v272c0,66.2,53.8,120,120,120h92C278.2,512,332,458.2,332,392z M212,40c44.1,0,80,35.9,80,80v272
	c0,44.1-35.9,80-80,80h-92c-44.1,0-80-35.9-80-80V120c0-44.1,35.9-80,80-80H212z M166,81c-11,0-20,9-20,20s9,20,20,20s20-9,20-20
	S177,81,166,81z M166,161c-11,0-20,9-20,20s9,20,20,20s20-9,20-20S177,161,166,161z M166,241c-11,0-20,9-20,20s9,20,20,20
	s20-9,20-20S177,241,166,241z"/>
</svg>
